<svg width="20" height="20" viewBox="0 0 20 20" fill="none" xmlns="http://www.w3.org/2000/svg">
<g clip-path="url(#clip0_28_102)">
<path d="M2.4 10C2.4 5.80264 5.80264 2.4 10 2.4C11.6897 2.4 13.2497 2.95048 14.512 3.88347C14.843 3.10422 15.5102 2.50224 16.3315 2.25946C14.6079 0.848205 12.4024 0 10 0C4.47715 0 0 4.47715 0 10C0 15.5228 4.47715 20 10 20C15.5228 20 20 15.5228 20 10C20 8.84417 19.8034 7.73224 19.4413 6.69712C18.9487 7.36314 18.1735 7.8075 17.2928 7.85308C17.4926 8.53301 17.6 9.25327 17.6 10C17.6 14.1974 14.1974 17.6 10 17.6C5.80264 17.6 2.4 14.1974 2.4 10Z" fill="#3880FF"/>
<path d="M10 14.375C12.4106 14.375 14.375 12.4143 14.375 9.99999C14.375 7.58942 12.4143 5.625 10 5.625C7.58571 5.625 5.625 7.58942 5.625 9.99999C5.625 12.4106 7.58942 14.375 10 14.375Z" fill="#3880FF"/>
<path d="M16.5625 6.25C17.7706 6.25 18.75 5.27062 18.75 4.0625C18.75 2.85437 17.7706 1.875 16.5625 1.875C15.3544 1.875 14.375 2.85437 14.375 4.0625C14.375 5.27062 15.3544 6.25 16.5625 6.25Z" fill="#3880FF"/>
</g>
<defs>
<clipPath id="clip0_28_102">
<rect width="20" height="20" fill="white"/>
</clipPath>
</defs>
</svg>
