<svg width="23" height="22" viewBox="0 0 23 22" fill="none" xmlns="http://www.w3.org/2000/svg">
<g clip-path="url(#clip0_28_89)">
<path d="M11.5 13.05C12.6322 13.05 13.55 12.1322 13.55 11C13.55 9.86783 12.6322 8.95001 11.5 8.95001C10.3678 8.95001 9.45 9.86783 9.45 11C9.45 12.1322 10.3678 13.05 11.5 13.05Z" fill="#61DAFB"/>
<path d="M11.5 15.2C17.5751 15.2 22.5 13.3196 22.5 11C22.5 8.68039 17.5751 6.79999 11.5 6.79999C5.42487 6.79999 0.5 8.68039 0.5 11C0.5 13.3196 5.42487 15.2 11.5 15.2Z" stroke="#61DAFB"/>
<path d="M7.86269 13.1C10.9003 18.3612 14.9912 21.6861 17 20.5263C19.0088 19.3665 18.1749 14.1612 15.1373 8.9C12.0997 3.63878 8.00882 0.31392 5.99999 1.47372C3.99116 2.63352 4.82512 7.83878 7.86269 13.1Z" stroke="#61DAFB"/>
<path d="M7.86269 8.90001C4.82512 14.1612 3.99116 19.3665 5.99999 20.5263C8.00882 21.6861 12.0997 18.3612 15.1373 13.1C18.1749 7.83879 19.0088 2.63353 17 1.47373C14.9912 0.313932 10.9003 3.63879 7.86269 8.90001Z" stroke="#61DAFB"/>
</g>
<defs>
<clipPath id="clip0_28_89">
<rect width="23" height="20.4635" fill="white" transform="translate(0 0.76825)"/>
</clipPath>
</defs>
</svg>
