<svg width="17" height="18" viewBox="0 0 17 18" fill="none" xmlns="http://www.w3.org/2000/svg">
<path d="M1.14221 8.99978C1.14221 11.7283 2.72788 14.0863 5.02723 15.2037L1.73902 6.1944C1.35654 7.0517 1.14221 8.00043 1.14221 8.99978Z" fill="#21759B"/>
<path d="M12.689 8.65195C12.689 7.80003 12.383 7.21004 12.1206 6.75083C11.7711 6.18301 11.4436 5.70215 11.4436 5.13433C11.4436 4.50067 11.9242 3.91081 12.6012 3.91081C12.6317 3.91081 12.6607 3.91462 12.6905 3.91632C11.4641 2.79275 9.83014 2.10675 8.03552 2.10675C5.6273 2.10675 3.50857 3.34234 2.276 5.21382C2.43773 5.21867 2.59014 5.22208 2.71961 5.22208C3.44063 5.22208 4.55672 5.1346 4.55672 5.1346C4.92832 5.11269 4.97213 5.65847 4.60093 5.70242C4.60093 5.70242 4.2275 5.74636 3.81196 5.76813L6.32222 13.2348L7.83077 8.71045L6.75678 5.76787C6.38558 5.74609 6.03392 5.70215 6.03392 5.70215C5.66246 5.68038 5.706 5.11243 6.07747 5.13433C6.07747 5.13433 7.21586 5.22182 7.8932 5.22182C8.61409 5.22182 9.73032 5.13433 9.73032 5.13433C10.1022 5.11243 10.1459 5.65821 9.77452 5.70215C9.77452 5.70215 9.40031 5.74609 8.98556 5.76787L11.4767 13.178L12.1642 10.8803C12.4623 9.92689 12.689 9.24207 12.689 8.65195Z" fill="#21759B"/>
<path d="M8.15646 9.60278L6.08823 15.6127C6.70576 15.7942 7.35884 15.8935 8.03552 15.8935C8.83826 15.8935 9.60808 15.7548 10.3246 15.5028C10.3061 15.4733 10.2894 15.4419 10.2756 15.4078L8.15646 9.60278Z" fill="#21759B"/>
<path d="M14.0841 5.69257C14.1138 5.91214 14.1305 6.14784 14.1305 6.40139C14.1305 7.1009 13.9999 7.88724 13.6064 8.87047L11.5008 14.9583C13.5501 13.7632 14.9286 11.543 14.9286 8.99993C14.9287 7.80146 14.6226 6.67448 14.0841 5.69257Z" fill="#21759B"/>
<path d="M8.03552 0.964539C3.60485 0.964539 0 4.56912 0 8.99979C0 13.431 3.60485 17.0354 8.03552 17.0354C12.4661 17.0354 16.0714 13.431 16.0714 8.99979C16.0713 4.56912 12.4661 0.964539 8.03552 0.964539ZM8.03552 16.6671C3.80802 16.6671 0.368446 13.2275 0.368446 8.99979C0.368446 4.7723 3.80789 1.33299 8.03552 1.33299C12.2629 1.33299 15.7022 4.7723 15.7022 8.99979C15.7022 13.2275 12.2629 16.6671 8.03552 16.6671Z" fill="#21759B"/>
</svg>
