<svg width="123" height="27" viewBox="0 0 123 27" fill="none" xmlns="http://www.w3.org/2000/svg">
<path d="M0 7.85586C0 3.69964 3.36929 0.330353 7.52551 0.330353L29.5 0.330353C29.5 4.48658 26.1307 7.85586 21.9745 7.85586L0 7.85586Z" fill="#24292F"/>
<path d="M0 17.2628C0 13.1065 3.36929 9.73724 7.52551 9.73724L22.8776 9.73724C22.8776 13.8935 19.5083 17.2628 15.352 17.2628H0Z" fill="#2F4858"/>
<path d="M0 19.1441H21.9745C26.1307 19.1441 29.5 22.5134 29.5 26.6696H7.52551C3.36929 26.6696 0 23.3004 0 19.1441Z" fill="#24292F"/>
<path d="M46.655 5.34V7.345H49.185V8.38H46.655V10.425H49.865V11.5H45.305V4.27H49.865V5.34H46.655ZM62.897 4.27V11.5H61.712V6.83C61.712 6.64333 61.722 6.44167 61.742 6.225L59.557 10.33C59.4536 10.5267 59.2953 10.625 59.082 10.625H58.892C58.6786 10.625 58.5203 10.5267 58.417 10.33L56.207 6.21C56.217 6.32 56.2253 6.42833 56.232 6.535C56.2386 6.64167 56.242 6.74 56.242 6.83V11.5H55.057V4.27H56.072C56.132 4.27 56.1836 4.27167 56.227 4.275C56.2703 4.27833 56.3086 4.28667 56.342 4.3C56.3786 4.31333 56.4103 4.335 56.437 4.365C56.467 4.395 56.4953 4.435 56.522 4.485L58.687 8.5C58.7436 8.60667 58.7953 8.71667 58.842 8.83C58.892 8.94333 58.9403 9.06 58.987 9.18C59.0336 9.05667 59.082 8.93833 59.132 8.825C59.182 8.70833 59.2353 8.59667 59.292 8.49L61.427 4.485C61.4536 4.435 61.482 4.395 61.512 4.365C61.542 4.335 61.5736 4.31333 61.607 4.3C61.6436 4.28667 61.6836 4.27833 61.727 4.275C61.7703 4.27167 61.822 4.27 61.882 4.27H62.897ZM69.8601 11.5H68.5101V4.27H69.8601V11.5ZM79.7138 10.39V11.5H75.4788V4.27H76.8238V10.39H79.7138ZM86.0241 11.5H84.6741V4.27H86.0241V11.5ZM95.4629 8.77L94.5829 6.365C94.5396 6.25833 94.4946 6.13167 94.4479 5.985C94.4012 5.83833 94.3546 5.68 94.3079 5.51C94.2646 5.68 94.2196 5.84 94.1729 5.99C94.1262 6.13667 94.0812 6.265 94.0379 6.375L93.1629 8.77H95.4629ZM97.8379 11.5H96.7979C96.6812 11.5 96.5862 11.4717 96.5129 11.415C96.4396 11.355 96.3846 11.2817 96.3479 11.195L95.8079 9.72H92.8129L92.2729 11.195C92.2462 11.2717 92.1946 11.3417 92.1179 11.405C92.0412 11.4683 91.9462 11.5 91.8329 11.5H90.7829L93.6279 4.27H94.9979L97.8379 11.5ZM108.681 4.27V11.5H107.991C107.885 11.5 107.795 11.4833 107.721 11.45C107.651 11.4133 107.583 11.3533 107.516 11.27L103.741 6.45C103.761 6.67 103.771 6.87333 103.771 7.06V11.5H102.586V4.27H103.291C103.348 4.27 103.396 4.27333 103.436 4.28C103.48 4.28333 103.516 4.29333 103.546 4.31C103.58 4.32333 103.611 4.345 103.641 4.375C103.671 4.40167 103.705 4.43833 103.741 4.485L107.531 9.325C107.521 9.20833 107.513 9.09333 107.506 8.98C107.5 8.86667 107.496 8.76167 107.496 8.665V4.27H108.681ZM121.186 7.885C121.186 8.415 121.098 8.90667 120.921 9.36C120.748 9.81 120.501 10.2 120.181 10.53C119.861 10.86 119.476 11.1183 119.026 11.305C118.576 11.4883 118.076 11.58 117.526 11.58C116.98 11.58 116.481 11.4883 116.031 11.305C115.581 11.1183 115.195 10.86 114.871 10.53C114.551 10.2 114.303 9.81 114.126 9.36C113.95 8.90667 113.861 8.415 113.861 7.885C113.861 7.355 113.95 6.865 114.126 6.415C114.303 5.96167 114.551 5.57 114.871 5.24C115.195 4.91 115.581 4.65333 116.031 4.47C116.481 4.28333 116.98 4.19 117.526 4.19C117.893 4.19 118.238 4.23333 118.561 4.32C118.885 4.40333 119.181 4.52333 119.451 4.68C119.721 4.83333 119.963 5.02167 120.176 5.245C120.393 5.465 120.576 5.71167 120.726 5.985C120.876 6.25833 120.99 6.555 121.066 6.875C121.146 7.195 121.186 7.53167 121.186 7.885ZM119.811 7.885C119.811 7.48833 119.758 7.13333 119.651 6.82C119.545 6.50333 119.393 6.235 119.196 6.015C119 5.795 118.76 5.62667 118.476 5.51C118.196 5.39333 117.88 5.335 117.526 5.335C117.173 5.335 116.855 5.39333 116.571 5.51C116.291 5.62667 116.051 5.795 115.851 6.015C115.655 6.235 115.503 6.50333 115.396 6.82C115.29 7.13333 115.236 7.48833 115.236 7.885C115.236 8.28167 115.29 8.63833 115.396 8.955C115.503 9.26833 115.655 9.535 115.851 9.755C116.051 9.97167 116.291 10.1383 116.571 10.255C116.855 10.3717 117.173 10.43 117.526 10.43C117.88 10.43 118.196 10.3717 118.476 10.255C118.76 10.1383 119 9.97167 119.196 9.755C119.393 9.535 119.545 9.26833 119.651 8.955C119.758 8.63833 119.811 8.28167 119.811 7.885ZM49.155 17.585C49.115 17.655 49.0717 17.7067 49.025 17.74C48.9817 17.77 48.9267 17.785 48.86 17.785C48.79 17.785 48.7133 17.76 48.63 17.71C48.55 17.6567 48.4533 17.5983 48.34 17.535C48.2267 17.4717 48.0933 17.415 47.94 17.365C47.79 17.3117 47.6117 17.285 47.405 17.285C47.2183 17.285 47.055 17.3083 46.915 17.355C46.775 17.3983 46.6567 17.46 46.56 17.54C46.4667 17.62 46.3967 17.7167 46.35 17.83C46.3033 17.94 46.28 18.0617 46.28 18.195C46.28 18.365 46.3267 18.5067 46.42 18.62C46.5167 18.7333 46.6433 18.83 46.8 18.91C46.9567 18.99 47.135 19.0617 47.335 19.125C47.535 19.1883 47.74 19.2567 47.95 19.33C48.16 19.4 48.365 19.4833 48.565 19.58C48.765 19.6733 48.9433 19.7933 49.1 19.94C49.2567 20.0833 49.3817 20.26 49.475 20.47C49.5717 20.68 49.62 20.935 49.62 21.235C49.62 21.5617 49.5633 21.8683 49.45 22.155C49.34 22.4383 49.1767 22.6867 48.96 22.9C48.7467 23.11 48.485 23.2767 48.175 23.4C47.865 23.52 47.51 23.58 47.11 23.58C46.88 23.58 46.6533 23.5567 46.43 23.51C46.2067 23.4667 45.9917 23.4033 45.785 23.32C45.5817 23.2367 45.39 23.1367 45.21 23.02C45.03 22.9033 44.87 22.7733 44.73 22.63L45.125 21.985C45.1583 21.9383 45.2017 21.9 45.255 21.87C45.3083 21.8367 45.365 21.82 45.425 21.82C45.5083 21.82 45.5983 21.855 45.695 21.925C45.7917 21.9917 45.9067 22.0667 46.04 22.15C46.1733 22.2333 46.3283 22.31 46.505 22.38C46.685 22.4467 46.9 22.48 47.15 22.48C47.5333 22.48 47.83 22.39 48.04 22.21C48.25 22.0267 48.355 21.765 48.355 21.425C48.355 21.235 48.3067 21.08 48.21 20.96C48.1167 20.84 47.9917 20.74 47.835 20.66C47.6783 20.5767 47.5 20.5067 47.3 20.45C47.1 20.3933 46.8967 20.3317 46.69 20.265C46.4833 20.1983 46.28 20.1183 46.08 20.025C45.88 19.9317 45.7017 19.81 45.545 19.66C45.3883 19.51 45.2617 19.3233 45.165 19.1C45.0717 18.8733 45.025 18.595 45.025 18.265C45.025 18.0017 45.0767 17.745 45.18 17.495C45.2867 17.245 45.44 17.0233 45.64 16.83C45.84 16.6367 46.0867 16.4817 46.38 16.365C46.6733 16.2483 47.01 16.19 47.39 16.19C47.8167 16.19 48.21 16.2567 48.57 16.39C48.93 16.5233 49.2367 16.71 49.49 16.95L49.155 17.585ZM59.7583 21.795C59.8316 21.795 59.8966 21.8233 59.9533 21.88L60.4833 22.455C60.1899 22.8183 59.8283 23.0967 59.3983 23.29C58.9716 23.4833 58.4583 23.58 57.8583 23.58C57.3216 23.58 56.8383 23.4883 56.4083 23.305C55.9816 23.1217 55.6166 22.8667 55.3133 22.54C55.0099 22.2133 54.7766 21.8233 54.6133 21.37C54.4533 20.9167 54.3733 20.4217 54.3733 19.885C54.3733 19.3417 54.4599 18.845 54.6333 18.395C54.8066 17.9417 55.0499 17.5517 55.3633 17.225C55.6799 16.8983 56.0566 16.645 56.4933 16.465C56.9299 16.2817 57.4133 16.19 57.9433 16.19C58.4699 16.19 58.9366 16.2767 59.3433 16.45C59.7533 16.6233 60.1016 16.85 60.3883 17.13L59.9383 17.755C59.9116 17.795 59.8766 17.83 59.8333 17.86C59.7933 17.89 59.7366 17.905 59.6633 17.905C59.6133 17.905 59.5616 17.8917 59.5083 17.865C59.4549 17.835 59.3966 17.8 59.3333 17.76C59.2699 17.7167 59.1966 17.67 59.1133 17.62C59.0299 17.57 58.9333 17.525 58.8233 17.485C58.7133 17.4417 58.5849 17.4067 58.4383 17.38C58.2949 17.35 58.1283 17.335 57.9383 17.335C57.6149 17.335 57.3183 17.3933 57.0483 17.51C56.7816 17.6233 56.5516 17.79 56.3583 18.01C56.1649 18.2267 56.0149 18.4933 55.9083 18.81C55.8016 19.1233 55.7483 19.4817 55.7483 19.885C55.7483 20.2917 55.8049 20.6533 55.9183 20.97C56.0349 21.2867 56.1916 21.5533 56.3883 21.77C56.5849 21.9867 56.8166 22.1533 57.0833 22.27C57.3499 22.3833 57.6366 22.44 57.9433 22.44C58.1266 22.44 58.2916 22.43 58.4383 22.41C58.5883 22.39 58.7249 22.3583 58.8483 22.315C58.9749 22.2717 59.0933 22.2167 59.2033 22.15C59.3166 22.08 59.4283 21.995 59.5383 21.895C59.5716 21.865 59.6066 21.8417 59.6433 21.825C59.6799 21.805 59.7183 21.795 59.7583 21.795ZM69.2246 20.77L68.3446 18.365C68.3013 18.2583 68.2563 18.1317 68.2096 17.985C68.1629 17.8383 68.1163 17.68 68.0696 17.51C68.0263 17.68 67.9813 17.84 67.9346 17.99C67.8879 18.1367 67.8429 18.265 67.7996 18.375L66.9246 20.77H69.2246ZM71.5996 23.5H70.5596C70.4429 23.5 70.3479 23.4717 70.2746 23.415C70.2013 23.355 70.1463 23.2817 70.1096 23.195L69.5696 21.72H66.5746L66.0346 23.195C66.0079 23.2717 65.9563 23.3417 65.8796 23.405C65.8029 23.4683 65.7079 23.5 65.5946 23.5H64.5446L67.3896 16.27H68.7596L71.5996 23.5ZM82.443 16.27V23.5H81.753C81.6463 23.5 81.5563 23.4833 81.483 23.45C81.413 23.4133 81.3446 23.3533 81.278 23.27L77.503 18.45C77.523 18.67 77.533 18.8733 77.533 19.06V23.5H76.348V16.27H77.053C77.1096 16.27 77.158 16.2733 77.198 16.28C77.2413 16.2833 77.278 16.2933 77.308 16.31C77.3413 16.3233 77.373 16.345 77.403 16.375C77.433 16.4017 77.4663 16.4383 77.503 16.485L81.293 21.325C81.283 21.2083 81.2746 21.0933 81.268 20.98C81.2613 20.8667 81.258 20.7617 81.258 20.665V16.27H82.443ZM94.013 19.875V22.8C93.6464 23.07 93.2547 23.2683 92.838 23.395C92.4247 23.5183 91.9814 23.58 91.508 23.58C90.918 23.58 90.383 23.4883 89.903 23.305C89.4264 23.1217 89.018 22.8667 88.678 22.54C88.3414 22.2133 88.0814 21.8233 87.898 21.37C87.7147 20.9167 87.623 20.4217 87.623 19.885C87.623 19.3417 87.7114 18.8433 87.888 18.39C88.0647 17.9367 88.3147 17.5467 88.638 17.22C88.9647 16.8933 89.3597 16.64 89.823 16.46C90.2864 16.28 90.8064 16.19 91.383 16.19C91.6764 16.19 91.9497 16.2133 92.203 16.26C92.4597 16.3067 92.6964 16.3717 92.913 16.455C93.133 16.535 93.333 16.6333 93.513 16.75C93.693 16.8667 93.858 16.995 94.008 17.135L93.623 17.745C93.563 17.8417 93.4847 17.9017 93.388 17.925C93.2914 17.945 93.1864 17.92 93.073 17.85C92.963 17.7867 92.853 17.7233 92.743 17.66C92.633 17.5967 92.5097 17.5417 92.373 17.495C92.2397 17.4483 92.088 17.41 91.918 17.38C91.7514 17.35 91.558 17.335 91.338 17.335C90.9814 17.335 90.658 17.395 90.368 17.515C90.0814 17.635 89.8364 17.8067 89.633 18.03C89.4297 18.2533 89.273 18.5217 89.163 18.835C89.053 19.1483 88.998 19.4983 88.998 19.885C88.998 20.2983 89.0564 20.6683 89.173 20.995C89.293 21.3183 89.4597 21.5933 89.673 21.82C89.8897 22.0433 90.1497 22.215 90.453 22.335C90.7564 22.4517 91.0947 22.51 91.468 22.51C91.7347 22.51 91.973 22.4817 92.183 22.425C92.393 22.3683 92.598 22.2917 92.798 22.195V20.885H91.888C91.8014 20.885 91.733 20.8617 91.683 20.815C91.6364 20.765 91.613 20.705 91.613 20.635V19.875H94.013ZM103.041 20.77L102.161 18.365C102.118 18.2583 102.073 18.1317 102.026 17.985C101.979 17.8383 101.933 17.68 101.886 17.51C101.843 17.68 101.798 17.84 101.751 17.99C101.704 18.1367 101.659 18.265 101.616 18.375L100.741 20.77H103.041ZM105.416 23.5H104.376C104.259 23.5 104.164 23.4717 104.091 23.415C104.018 23.355 103.963 23.2817 103.926 23.195L103.386 21.72H100.391L99.851 23.195C99.8243 23.2717 99.7727 23.3417 99.696 23.405C99.6193 23.4683 99.5243 23.5 99.411 23.5H98.361L101.206 16.27H102.576L105.416 23.5Z" fill="#24292F"/>
</svg>
