<svg width="45" height="45" viewBox="0 0 45 45" fill="none" xmlns="http://www.w3.org/2000/svg">
<path d="M3.75 5.625L4.24671 5.79056C6.72178 6.6156 7.95932 7.0281 8.66715 8.01019C9.375 8.99226 9.375 10.2967 9.375 12.9057V17.8125C9.375 23.1157 9.375 25.7674 11.0225 27.4149C12.67 29.0625 15.3217 29.0625 20.625 29.0625H24.375M35.625 29.0625H31.875" stroke="#2F4858" stroke-width="2.5" stroke-linecap="round"/>
<path d="M14.0625 33.75C15.6158 33.75 16.875 35.0092 16.875 36.5625C16.875 38.1158 15.6158 39.375 14.0625 39.375C12.5092 39.375 11.25 38.1158 11.25 36.5625C11.25 35.0092 12.5092 33.75 14.0625 33.75Z" stroke="#2F4858" stroke-width="2.5"/>
<path d="M30.9375 33.7502C32.4908 33.7502 33.75 35.0092 33.75 36.5627C33.75 38.1159 32.4908 39.3752 30.9375 39.3752C29.3842 39.3752 28.125 38.1159 28.125 36.5627C28.125 35.0092 29.3842 33.7502 30.9375 33.7502Z" stroke="#2F4858" stroke-width="2.5"/>
<path d="M9.375 11.25H15M10.3125 24.375H30.0409C31.8397 24.375 32.7392 24.375 33.4436 23.9106C34.1481 23.4459 34.5024 22.6192 35.211 20.9659L36.0146 19.0909C37.5324 15.5493 38.2914 13.7785 37.4578 12.5142C36.624 11.25 34.6976 11.25 30.8445 11.25H22.5" stroke="#2F4858" stroke-width="2.5" stroke-linecap="round"/>
</svg>
