<svg width="45" height="45" viewBox="0 0 45 45" fill="none" xmlns="http://www.w3.org/2000/svg">
<path d="M18.75 41.2402C12.3504 41.1859 8.82242 40.8307 6.49588 38.5041C3.75 35.7583 3.75 31.3387 3.75 22.5C3.75 13.6612 3.75 9.24174 6.49588 6.49588C9.24174 3.75 13.6612 3.75 22.5 3.75C31.3388 3.75 35.7583 3.75 38.5041 6.49588C40.3299 8.32164 40.9418 10.8873 41.1467 15" stroke="#2F4858" stroke-width="2.5" stroke-linecap="round"/>
<path d="M4.6875 13.5938C3.91086 13.5938 3.28125 14.2234 3.28125 15C3.28125 15.7766 3.91086 16.4062 4.6875 16.4062V13.5938ZM41.25 13.5938H4.6875V16.4062H41.25V13.5938Z" fill="#2F4858"/>
<path d="M19.6875 4.6875L13.125 15" stroke="#2F4858" stroke-width="2" stroke-linecap="round"/>
<path d="M31.875 4.6875L25.3125 15" stroke="#2F4858" stroke-width="2" stroke-linecap="round"/>
<path d="M34.8038 26.1289L35.5858 25.3468C36.8816 24.051 38.9824 24.051 40.2782 25.3468C41.574 26.6426 41.574 28.7434 40.2782 30.0392L39.4962 30.8212M34.8038 26.1289C34.8038 26.1289 34.9017 27.7907 36.3679 29.2571C37.8343 30.7234 39.4962 30.8212 39.4962 30.8212M34.8038 26.1289L27.6141 33.3187C27.127 33.8057 26.8836 34.049 26.6742 34.3175C26.4272 34.6342 26.2153 34.977 26.0427 35.3396C25.896 35.6469 25.7873 35.9735 25.5694 36.627L24.8721 38.7187L24.6465 39.3954M39.4962 30.8212L32.3063 38.0109C31.8193 38.498 31.576 38.7414 31.3075 38.9509C30.9908 39.1978 30.648 39.4097 30.2854 39.5824C29.9781 39.729 29.6515 39.8377 28.998 40.0556L26.9063 40.7529L26.2296 40.9785M24.6465 39.3954L24.421 40.0723C24.3137 40.3937 24.3975 40.7482 24.6372 40.9879C24.8768 41.2275 25.2313 41.3113 25.5527 41.204L26.2296 40.9785M24.6465 39.3954L26.2296 40.9785" stroke="#2F4858" stroke-width="3"/>
</svg>
