<svg width="45" height="45" viewBox="0 0 45 45" fill="none" xmlns="http://www.w3.org/2000/svg">
<path d="M31.875 28.125H27.1875H22.5" stroke="#2F4858" stroke-width="2.5" stroke-linecap="round"/>
<path d="M13.125 18.75L13.5645 19.1162C15.9676 21.1189 17.1692 22.1201 17.1692 23.4375C17.1692 24.7549 15.9676 25.7561 13.5645 27.7588L13.125 28.125" stroke="#2F4858" stroke-width="2.5" stroke-linecap="round"/>
<path d="M41.25 22.5C41.25 31.3387 41.25 35.7583 38.5041 38.5041C35.7583 41.25 31.3387 41.25 22.5 41.25C13.6612 41.25 9.24174 41.25 6.49588 38.5041C3.75 35.7583 3.75 31.3387 3.75 22.5C3.75 13.6612 3.75 9.24174 6.49588 6.49588C9.24174 3.75 13.6612 3.75 22.5 3.75C31.3387 3.75 35.7583 3.75 38.5041 6.49588C40.3299 8.32164 40.9417 10.8873 41.1467 15" stroke="#2F4858" stroke-width="2.5" stroke-linecap="round"/>
</svg>
