<svg width="45" height="45" viewBox="0 0 45 45" fill="none" xmlns="http://www.w3.org/2000/svg">
<path d="M3.75 15V11.25C3.75 8.62476 3.75 7.31212 4.2609 6.30941C4.71032 5.42741 5.42741 4.71032 6.30941 4.2609C7.31212 3.75 8.62476 3.75 11.25 3.75C13.8752 3.75 15.1879 3.75 16.1906 4.2609C17.0726 4.71032 17.7897 5.42741 18.2391 6.30941C18.75 7.31212 18.75 8.62476 18.75 11.25V33.75C18.75 36.3752 18.75 37.6879 18.2391 38.6906C17.7897 39.5726 17.0726 40.2896 16.1906 40.7391C15.1879 41.25 13.8752 41.25 11.25 41.25C8.62476 41.25 7.31212 41.25 6.30941 40.7391C5.42741 40.2896 4.71032 39.5726 4.2609 38.6906C3.75 37.6879 3.75 36.3752 3.75 33.75V22.5" stroke="#2F4858" stroke-width="2.5" stroke-linecap="round"/>
<path d="M13.125 35.625H9.375" stroke="#2F4858" stroke-width="2.5" stroke-linecap="round"/>
<path d="M24.9632 9.24192L20.9468 13.2583C19.8628 14.3422 19.3209 14.8841 19.0354 15.5733C18.75 16.2624 18.75 17.0288 18.75 18.5616V36.6683L35.5697 19.8486C37.4261 17.9922 38.3542 17.064 38.7021 15.9937C39.0079 15.0523 39.0079 14.0382 38.7021 13.0967C38.3542 12.0264 37.4261 11.0982 35.5697 9.24192C33.7134 7.3856 32.7853 6.45743 31.7149 6.10968C30.7734 5.80377 29.7594 5.80377 28.8178 6.10968C27.7476 6.45743 26.8194 7.3856 24.9632 9.24192Z" stroke="#2F4858" stroke-width="2.5"/>
<path d="M24.375 42.6563C25.1516 42.6563 25.7812 42.0266 25.7812 41.25C25.7812 40.4734 25.1516 39.8438 24.375 39.8438V42.6563ZM31.875 39.8438C31.0984 39.8438 30.4687 40.4734 30.4687 41.25C30.4687 42.0266 31.0984 42.6563 31.875 42.6563V39.8438ZM29.0625 27.6563H33.75V24.8438H29.0625V27.6563ZM39.8437 33.75C39.8437 35.0858 39.8426 36.0032 39.7845 36.7142C39.7279 37.4089 39.6238 37.782 39.4862 38.0522L41.9921 39.3291C42.3654 38.5963 42.5167 37.8118 42.5876 36.9433C42.6574 36.0911 42.6562 35.0394 42.6562 33.75H39.8437ZM33.75 42.6563C35.0394 42.6563 36.0911 42.6574 36.9433 42.5876C37.8118 42.5168 38.5963 42.3654 39.3291 41.9921L38.0522 39.4862C37.782 39.6238 37.4089 39.7279 36.7142 39.7845C36.0032 39.8426 35.0857 39.8438 33.75 39.8438V42.6563ZM39.4862 38.0522C39.1716 38.6696 38.6696 39.1716 38.0522 39.4862L39.3291 41.9921C40.4756 41.4079 41.4079 40.4756 41.9921 39.3291L39.4862 38.0522ZM42.6562 33.75C42.6562 32.4606 42.6574 31.4089 42.5876 30.5567C42.5167 29.6882 42.3654 28.9037 41.9921 28.1709L39.4862 29.4478C39.6238 29.718 39.7279 30.0911 39.7845 30.7858C39.8426 31.4968 39.8437 32.4143 39.8437 33.75H42.6562ZM33.75 27.6563C35.0857 27.6563 36.0032 27.6574 36.7142 27.7155C37.4089 27.7721 37.782 27.8762 38.0522 28.0138L39.3291 25.5079C38.5963 25.1346 37.8118 24.9833 36.9433 24.9124C36.0911 24.8426 35.0394 24.8438 33.75 24.8438V27.6563ZM41.9921 28.1709C41.4079 27.0244 40.4756 26.0921 39.3291 25.5079L38.0522 28.0138C38.6696 28.3284 39.1716 28.8304 39.4862 29.4478L41.9921 28.1709ZM24.375 39.8438H11.25V42.6563H24.375V39.8438ZM33.75 39.8438H31.875V42.6563H33.75V39.8438Z" fill="#2F4858"/>
</svg>
