<svg width="45" height="45" viewBox="0 0 45 45" fill="none" xmlns="http://www.w3.org/2000/svg">
<path d="M6.79991 30.7483C7.13177 35.7262 7.29771 38.2153 8.9196 39.7326C10.5415 41.25 13.036 41.25 18.025 41.25H19.4751C24.4641 41.25 26.9586 41.25 28.5804 39.7326C30.2023 38.2153 30.3682 35.7262 30.7001 30.7483L31.3417 21.1239C31.5917 17.3754 31.7166 15.5011 30.6051 14.3131C29.4936 13.125 27.6152 13.125 23.8584 13.125H13.6417C9.88483 13.125 8.00642 13.125 6.89492 14.3131C5.78342 15.5011 5.90837 17.3754 6.15827 21.1239L6.26664 22.7494" stroke="#2F4858" stroke-width="2.5" stroke-linecap="round"/>
<path d="M31.875 31.875H33.75C37.8921 31.875 41.25 28.5171 41.25 24.375C41.25 20.2329 37.8921 16.875 33.75 16.875H31.875" stroke="#2F4858" stroke-width="2.5"/>
<path d="M18.75 35.1562C19.5266 35.1562 20.1562 34.5266 20.1562 33.75C20.1562 32.9734 19.5266 32.3438 18.75 32.3438V35.1562ZM25.3125 32.3438C24.5359 32.3438 23.9062 32.9734 23.9062 33.75C23.9062 34.5266 24.5359 35.1562 25.3125 35.1562V32.3438ZM18.75 32.3438H7.5V35.1562H18.75V32.3438ZM30 32.3438H25.3125V35.1562H30V32.3438Z" fill="#2F4858"/>
<path d="M11.3453 9.49012L12.1152 8.41076C12.5404 7.81464 12.4018 6.98668 11.8057 6.56147C11.2096 6.13626 11.071 5.30831 11.4962 4.71219L12.2662 3.63281M26.3453 9.49012L27.1151 8.41076C27.5404 7.81464 27.4018 6.98668 26.8058 6.56147C26.2095 6.13626 26.0711 5.30831 26.4962 4.71219L27.2661 3.63281M18.8453 9.49012L19.6151 8.41076C20.0404 7.81464 19.9018 6.98668 19.3057 6.56147C18.7096 6.13626 18.571 5.30831 18.9962 4.71219L19.7661 3.63281" stroke="#2F4858" stroke-width="2.5" stroke-linecap="round"/>
</svg>
