<svg width="45" height="45" viewBox="0 0 45 45" fill="none" xmlns="http://www.w3.org/2000/svg">
<path d="M20.8986 13.1672C21.6111 11.8891 21.9673 11.25 22.5 11.25C23.0327 11.25 23.3889 11.8891 24.1014 13.1672L24.2857 13.4979C24.4881 13.8611 24.5893 14.0427 24.7472 14.1625C24.9051 14.2823 25.1016 14.3268 25.4947 14.4158L25.8527 14.4968C27.2362 14.8098 27.9281 14.9663 28.0927 15.4956C28.2574 16.0249 27.7856 16.5763 26.8425 17.6793L26.5984 17.9647C26.3304 18.2781 26.1964 18.4348 26.136 18.6287C26.0758 18.8226 26.0961 19.0316 26.1366 19.4499L26.1735 19.8306C26.316 21.3022 26.3874 22.038 25.9566 22.3652C25.5255 22.6922 24.8779 22.3941 23.5824 21.7976L23.2474 21.6433C22.8791 21.4738 22.6952 21.3891 22.5 21.3891C22.3048 21.3891 22.1209 21.4738 21.7526 21.6433L21.4176 21.7976C20.1221 22.3941 19.4745 22.6922 19.0434 22.3652C18.6126 22.038 18.6839 21.3022 18.8265 19.8306L18.8634 19.4499C18.9039 19.0316 18.9242 18.8226 18.864 18.6287C18.8036 18.4348 18.6696 18.2781 18.4016 17.9647L18.1575 17.6793C17.2143 16.5763 16.7427 16.0249 16.9073 15.4956C17.0719 14.9663 17.7637 14.8098 19.1473 14.4968L19.5052 14.4158C19.8984 14.3268 20.0949 14.2823 20.2528 14.1625C20.4107 14.0427 20.5119 13.8611 20.7142 13.4979L20.8986 13.1672Z" stroke="#2F4858" stroke-width="2.5"/>
<path d="M22.5 30.1271L15.4285 37.449C14.4158 38.4977 13.9094 39.0219 13.4806 39.2032C12.5035 39.6167 11.4195 39.2629 10.9055 38.3629C10.6799 37.9678 10.6096 37.2553 10.4691 35.8303C10.3897 35.0258 10.35 34.6234 10.2295 34.2864C9.95983 33.5321 9.39311 32.9452 8.66456 32.6661C8.33913 32.5414 7.95061 32.5003 7.17354 32.418C5.79725 32.2725 5.10911 32.1997 4.72758 31.9661C3.85822 31.434 3.51652 30.3116 3.9158 29.2999C4.09102 28.8559 4.59738 28.3316 5.61011 27.2829L10.2295 22.5" stroke="#2F4858" stroke-width="2.5"/>
<path d="M22.5 30.1271L29.5716 37.449C30.5842 38.4977 31.0905 39.0219 31.5193 39.2032C32.4966 39.6167 33.5805 39.2629 34.0944 38.3629C34.32 37.9678 34.3903 37.2553 34.5309 35.8303C34.6102 35.0258 34.65 34.6234 34.7704 34.2864C35.0402 33.5321 35.6068 32.9452 36.3354 32.6661C36.6609 32.5414 37.0494 32.5003 37.8264 32.418C39.2027 32.2725 39.8908 32.1997 40.2724 31.9661C41.1418 31.434 41.4834 30.3116 41.0842 29.2999C40.9089 28.8559 40.4027 28.3316 39.3898 27.2829L34.7704 22.5" stroke="#2F4858" stroke-width="2.5"/>
<path d="M10.3125 11.9942C9.70772 13.503 9.375 15.1501 9.375 16.875C9.375 24.1237 15.2513 30 22.5 30C29.7487 30 35.625 24.1237 35.625 16.875C35.625 9.62627 29.7487 3.75 22.5 3.75C20.7752 3.75 19.128 4.08272 17.6192 4.6875" stroke="#2F4858" stroke-width="2.5" stroke-linecap="round"/>
</svg>
